<svg width="144" height="28" viewBox="0 0 144 28" fill="none" xmlns="http://www.w3.org/2000/svg">
    <path d="M1.232 15.072L0.896 14.928L1.856 14.832V1.92L2.72 1.2L4.688 1.536L5.072 1.152H5.792L10.112 0.816C10.144 1.072 10.32 1.248 10.64 1.344C10.992 1.408 11.36 1.456 11.744 1.488C13.024 1.552 14.144 1.856 15.104 2.4C16.064 2.944 16.864 3.616 17.504 4.416C18.144 5.216 18.624 6.128 18.944 7.152C19.296 8.144 19.472 9.12 19.472 10.08C19.472 10.624 19.264 11.152 18.848 11.664C18.464 12.144 18 12.592 17.456 13.008C16.912 13.424 16.352 13.776 15.776 14.064C15.232 14.32 14.8 14.512 14.48 14.64L9.2 16.416C8.848 16.608 8.528 16.752 8.24 16.848C7.984 16.944 7.648 17.024 7.232 17.088L7.424 17.952L7.184 21.216L7.328 23.376L6.368 24.192H2.672L2.144 24.624H1.376L1.232 23.52V15.072ZM6.56 5.28V8.544L6.944 10.752V12.048H7.664L14.288 10.704L16.016 8.304C15.824 7.6 15.52 7.104 15.104 6.816C14.688 6.496 14.224 6.272 13.712 6.144C13.2 6.016 12.64 5.936 12.032 5.904C11.456 5.84 10.912 5.728 10.4 5.568C9.408 5.28 8.608 5.136 8 5.136C7.776 5.136 7.536 5.152 7.28 5.184C7.056 5.216 6.816 5.248 6.56 5.28ZM38.7511 12.144V18.72L38.3191 19.296H35.4391L34.2871 18.528L34.4311 18.192L33.9511 17.712L33.3271 18L31.4071 19.92L30.4471 20.4L28.7671 20.208L28.5751 20.544L27.5191 20.88L26.1751 20.016L25.0231 19.632L23.9671 16.992L24.4951 11.76L23.6791 10.128L24.0631 7.008L24.8311 6.768H28.4311L29.2471 9.264V14.544L29.6311 15.12L29.8231 15.84L30.3511 16.032L32.7991 15.216H33.6151L34.1911 14.832V7.008L34.9111 6.624L37.3111 7.152L38.7511 12.144ZM70.2474 18.624L69.8154 19.296H65.2074L63.9594 18.768V16.368L63.3354 11.376L63.0474 10.512L60.9834 10.32L60.8874 11.376V12.96V15.216L61.3674 18.528L60.3114 19.344H56.3754L55.8954 18.912V16.08V12.336L55.7034 10.512L55.1274 9.696H52.7274V19.344L51.6714 19.584H49.1274L48.4554 19.92L45.9594 19.728V11.28L46.3434 7.2L47.3034 5.376L49.4634 5.904L50.5194 5.76L51.7194 6.576L51.9594 7.008L52.5354 7.152L55.3674 6.144L57.9594 6.336L60.2634 7.728L61.4154 7.536L61.9914 7.2L63.4794 7.056L68.1834 7.152C68.6634 7.376 69.0474 7.728 69.3354 8.208C69.6234 8.688 69.8794 9.184 70.1034 9.696L70.2474 18.624ZM75.9001 26.592L76.4761 22.848V14.016L77.0041 12.432L77.4841 6.432L77.9641 4.368L79.7401 4.608L80.1241 4.272H80.8441L85.2121 3.888C85.2441 4.176 85.4201 4.352 85.7401 4.416C86.0921 4.48 86.4601 4.528 86.8441 4.56C88.0921 4.624 89.1961 4.928 90.1561 5.472C91.1161 6.016 91.9161 6.704 92.5561 7.536C93.1961 8.336 93.6761 9.232 93.9961 10.224C94.3481 11.216 94.5241 12.208 94.5241 13.2C94.5241 13.712 94.3161 14.224 93.9001 14.736C93.5161 15.216 93.0521 15.664 92.5081 16.08C91.9641 16.496 91.4041 16.848 90.8281 17.136C90.2841 17.424 89.8521 17.616 89.5321 17.712L84.2521 19.488C83.9001 19.712 83.5801 19.872 83.2921 19.968C83.0361 20.032 82.7001 20.096 82.2841 20.16L82.4761 21.024L82.2361 24.288L82.4281 26.496L81.4201 27.264H77.7241L77.1961 27.696H76.4281L75.9001 26.592ZM81.6121 8.352V11.616L81.9961 13.824V15.12H82.7161L89.3401 13.776L91.0681 11.424C90.8761 10.72 90.5721 10.208 90.1561 9.888C89.7721 9.568 89.3081 9.344 88.7641 9.216C88.2521 9.088 87.7081 9.008 87.1321 8.976C86.5561 8.912 85.9961 8.816 85.4521 8.688C84.4601 8.4 83.6601 8.256 83.0521 8.256C82.8281 8.256 82.5881 8.272 82.3321 8.304C82.1081 8.304 81.8681 8.32 81.6121 8.352ZM114.49 21.888H114.25C114.41 21.888 114.49 21.936 114.49 22.032C114.49 22.096 114.346 22.256 114.058 22.512C113.802 22.736 113.578 22.88 113.386 22.944C112.618 22.976 111.962 23.04 111.418 23.136C110.906 23.232 110.41 23.344 109.93 23.472C109.482 23.6 109.018 23.712 108.538 23.808C108.09 23.872 107.514 23.904 106.81 23.904C106.49 23.84 106.218 23.808 105.994 23.808C105.77 23.808 105.562 23.808 105.37 23.808C105.146 23.808 104.922 23.824 104.698 23.856C104.506 23.856 104.314 23.856 104.122 23.856C103.77 23.856 103.482 23.84 103.258 23.808C103.034 23.776 102.826 23.744 102.634 23.712C102.442 23.648 102.234 23.552 102.01 23.424C101.786 23.264 101.482 23.072 101.098 22.848H100.234C100.202 22.848 100.154 22.768 100.09 22.608C100.058 22.416 100.01 22.32 99.9463 22.32L99.6583 22.08C99.6583 22.08 99.5943 22 99.4663 21.84C99.3703 21.68 99.2423 21.536 99.0823 21.408C98.6983 20.832 98.4743 20.32 98.4103 19.872C98.3783 19.392 98.3623 18.912 98.3623 18.432C98.3943 18.176 98.4263 17.92 98.4583 17.664C98.5223 17.408 98.6343 17.152 98.7943 16.896C99.0823 16.32 99.3703 15.824 99.6583 15.408C99.9463 14.992 100.218 14.608 100.474 14.256C100.73 13.904 101.018 13.584 101.338 13.296C101.658 13.008 102.01 12.704 102.394 12.384C103.098 11.968 103.898 11.696 104.794 11.568C105.722 11.44 106.586 11.232 107.386 10.944C107.738 10.944 108.058 11.008 108.346 11.136C108.634 11.264 109.034 11.328 109.546 11.328C109.61 11.424 109.706 11.504 109.834 11.568C110.026 11.728 110.298 11.808 110.65 11.808C110.682 11.808 110.714 11.856 110.746 11.952C110.778 12.048 110.826 12.144 110.89 12.24C110.986 12.336 111.098 12.432 111.226 12.528C111.386 12.624 111.578 12.672 111.802 12.672C111.802 12.736 111.866 12.912 111.994 13.2C112.154 13.488 112.314 13.84 112.474 14.256C112.634 14.64 112.778 15.072 112.906 15.552C113.066 16 113.178 16.448 113.242 16.896C113.05 17.12 112.874 17.28 112.714 17.376C112.554 17.44 112.41 17.632 112.282 17.952C111.994 17.984 111.706 18.064 111.418 18.192C111.13 18.288 110.746 18.416 110.266 18.576C109.786 18.704 109.178 18.816 108.442 18.912C107.706 19.008 106.778 19.056 105.658 19.056C105.626 19.056 105.61 18.976 105.61 18.816C105.61 18.624 105.594 18.432 105.562 18.24C105.53 18.016 105.482 17.808 105.418 17.616C105.354 17.424 105.242 17.296 105.082 17.232C105.146 17.232 105.37 17.2 105.754 17.136C106.17 17.072 106.698 16.944 107.338 16.752C107.498 16.72 107.69 16.704 107.914 16.704C108.138 16.704 108.362 16.688 108.586 16.656C108.81 16.624 109.002 16.56 109.162 16.464C109.322 16.368 109.402 16.208 109.402 15.984C109.402 15.824 109.386 15.664 109.354 15.504C109.354 15.312 109.29 15.136 109.162 14.976C109.034 14.816 108.858 14.688 108.634 14.592C108.442 14.464 108.154 14.4 107.77 14.4C107.13 14.4 106.49 14.512 105.85 14.736C105.21 14.928 104.762 15.104 104.506 15.264C104.218 15.712 104.026 16.32 103.93 17.088C103.834 17.824 103.786 18.432 103.786 18.912C103.786 19.328 103.93 19.696 104.218 20.016C104.538 20.336 104.698 20.56 104.698 20.688C104.698 20.848 104.794 20.96 104.986 21.024C105.21 21.088 105.498 21.184 105.85 21.312C105.914 21.312 105.946 21.312 105.946 21.312C105.978 21.28 106.01 21.264 106.042 21.264C106.074 21.264 106.106 21.248 106.138 21.216C106.266 21.28 106.314 21.312 106.282 21.312C106.25 21.312 106.234 21.312 106.234 21.312C106.234 21.312 106.314 21.344 106.474 21.408C106.666 21.44 107.066 21.504 107.674 21.6C108.026 21.6 108.33 21.6 108.586 21.6C108.842 21.568 109.098 21.552 109.354 21.552C109.61 21.52 109.882 21.504 110.17 21.504C110.458 21.504 110.794 21.488 111.178 21.456H111.418C111.77 21.456 112.058 21.424 112.282 21.36C112.538 21.264 112.746 21.184 112.906 21.12C113.098 21.024 113.274 20.944 113.434 20.88C113.594 20.784 113.77 20.736 113.962 20.736C114.026 20.928 114.106 21.104 114.202 21.264C114.298 21.392 114.346 21.536 114.346 21.696L114.49 21.888ZM135.389 14.352C136.189 15.312 137.021 16.256 137.885 17.184C138.781 18.08 139.757 19.008 140.813 19.968C141.005 20.192 141.229 20.432 141.485 20.688C141.773 20.944 142.045 21.216 142.301 21.504C142.589 21.76 142.829 22.016 143.021 22.272C143.213 22.496 143.309 22.688 143.309 22.848C143.309 23.072 143.005 23.296 142.397 23.52C141.821 23.744 141.213 24.016 140.573 24.336L138.893 25.152L137.981 24.672C137.757 24.512 137.501 24.336 137.213 24.144C136.957 23.984 136.845 23.744 136.877 23.424C136.461 22.976 136.109 22.576 135.821 22.224C135.565 21.872 135.309 21.536 135.053 21.216C134.829 20.864 134.589 20.512 134.333 20.16C134.077 19.776 133.725 19.328 133.277 18.816C133.277 18.464 133.133 18.192 132.845 18C132.557 17.776 132.333 17.472 132.173 17.088C132.013 16.928 131.821 16.784 131.597 16.656C131.405 16.496 131.197 16.256 130.973 15.936L129.437 16.416C129.085 16.608 128.765 16.752 128.477 16.848C128.189 16.944 127.853 17.024 127.469 17.088L127.661 17.952L127.421 21.216L127.565 23.424L126.653 24.24H122.909L122.381 24.624H121.661L121.469 23.52V15.072L121.133 14.976L122.093 14.832V1.92L122.957 1.2L124.925 1.584L125.261 1.152H126.029L130.349 0.816C130.381 1.072 130.557 1.248 130.877 1.344C131.229 1.408 131.597 1.456 131.981 1.488C133.261 1.552 134.381 1.856 135.341 2.4C136.301 2.944 137.101 3.616 137.741 4.416C138.381 5.216 138.861 6.128 139.181 7.152C139.501 8.144 139.661 9.12 139.661 10.08C139.661 10.56 139.501 11.024 139.181 11.472C138.861 11.92 138.461 12.336 137.981 12.72C137.533 13.104 137.053 13.456 136.541 13.776C136.061 14.064 135.677 14.256 135.389 14.352ZM126.797 5.28V8.544L127.181 10.8V12.048H127.901L134.525 10.752L136.253 8.352C136.061 7.616 135.757 7.104 135.341 6.816C134.925 6.496 134.445 6.272 133.901 6.144C133.389 6.016 132.845 5.936 132.269 5.904C131.693 5.872 131.149 5.776 130.637 5.616C130.061 5.488 129.581 5.392 129.197 5.328C128.845 5.232 128.477 5.184 128.093 5.184C127.901 5.184 127.693 5.2 127.469 5.232C127.245 5.232 127.021 5.248 126.797 5.28Z" fill="white"/>
</svg>
